<?xml version="1.0" encoding="UTF-8"?>
<svg width="624px" height="475px" viewBox="0 0 624 475" version="1.1" xmlns="http://www.w3.org/2000/svg" xmlns:xlink="http://www.w3.org/1999/xlink">
    <!-- Generator: Sketch 55 (78076) - https://sketchapp.com -->
    <title>Group 3</title>
    <desc>Created with Sketch.</desc>
    <defs>
        <filter x="-54.7%" y="-31.0%" width="209.4%" height="162.1%" filterUnits="objectBoundingBox" id="filter-1">
            <feOffset dx="0" dy="11" in="SourceAlpha" result="shadowOffsetOuter1"></feOffset>
            <feGaussianBlur stdDeviation="18" in="shadowOffsetOuter1" result="shadowBlurOuter1"></feGaussianBlur>
            <feColorMatrix values="0 0 0 0 0   0 0 0 0 0   0 0 0 0 0  0 0 0 0.15 0" type="matrix" in="shadowBlurOuter1" result="shadowMatrixOuter1"></feColorMatrix>
            <feMerge>
                <feMergeNode in="shadowMatrixOuter1"></feMergeNode>
                <feMergeNode in="SourceGraphic"></feMergeNode>
            </feMerge>
        </filter>
        <linearGradient x1="37.5161127%" y1="0%" x2="62.4838873%" y2="100%" id="linearGradient-2">
            <stop stop-color="#FFFFFF" offset="0%"></stop>
            <stop stop-color="#FEFEFE" offset="100%"></stop>
        </linearGradient>
        <path d="M5.34148847,154.450823 L1.70099998,154.450823 C0.76156363,154.450823 -1.13793835e-13,153.68926 -1.13908882e-13,152.749823 L-1.13464793e-13,126.400042 C-1.13579841e-13,125.460605 0.76156363,124.699042 1.70099998,124.699042 L5.34148847,124.699042 L5.34148847,116.651428 L1.70099998,116.651428 C0.76156363,116.651428 -1.13793835e-13,115.889865 -1.13908882e-13,114.950429 L-1.13464793e-13,88.6006466 C-1.13579841e-13,87.6612103 0.76156363,86.8996466 1.70099998,86.8996466 L5.34148847,86.8996466 L5.34148847,72.5114899 L1.70099998,72.5114899 C0.76156363,72.5114899 -1.13793835e-13,71.7499262 -1.13908882e-13,70.8104899 L-1.13464793e-13,57.6295295 C-1.13579841e-13,56.6900931 0.76156363,55.9285295 1.70099998,55.9285295 L5.34148847,55.9285295 L5.34148847,31.308098 C5.34148847,20.4761455 6.46931963,16.5482177 8.58715077,12.5882178 C10.7049819,8.62821782 13.8128131,5.52038669 17.772813,3.40255554 C21.732813,1.28472439 25.6607407,0.156893231 36.4926932,0.156893231 L175.271029,0.156893231 C186.102982,0.156893231 190.03091,1.28472439 193.99091,3.40255554 C197.95091,5.52038669 201.058741,8.62821782 203.176572,12.5882178 C205.294403,16.5482177 206.422234,20.4761455 206.422234,31.308098 L206.422234,382.116495 C206.422234,392.948448 205.294403,396.876376 203.176572,400.836376 C201.058741,404.796376 197.95091,407.904207 193.99091,410.022038 C190.03091,412.139869 186.102982,413.2677 175.271029,413.2677 L36.4926932,413.2677 C25.6607407,413.2677 21.732813,412.139869 17.772813,410.022038 C13.8128131,407.904207 10.7049819,404.796376 8.58715077,400.836376 C6.46931963,396.876376 5.34148847,392.948448 5.34148847,382.116495 L5.34148847,154.450823 Z" id="path-3"></path>
        <filter x="-25.5%" y="-8.6%" width="151.0%" height="125.5%" filterUnits="objectBoundingBox" id="filter-4">
            <feMorphology radius="0.680399991" operator="dilate" in="SourceAlpha" result="shadowSpreadOuter1"></feMorphology>
            <feOffset dx="0" dy="17" in="shadowSpreadOuter1" result="shadowOffsetOuter1"></feOffset>
            <feGaussianBlur stdDeviation="14.5" in="shadowOffsetOuter1" result="shadowBlurOuter1"></feGaussianBlur>
            <feComposite in="shadowBlurOuter1" in2="SourceAlpha" operator="out" result="shadowBlurOuter1"></feComposite>
            <feColorMatrix values="0 0 0 0 0   0 0 0 0 0   0 0 0 0 0  0 0 0 0.132840806 0" type="matrix" in="shadowBlurOuter1"></feColorMatrix>
        </filter>
        <rect id="path-5" x="0" y="0" width="182.112247" height="394.793806" rx="20.6549997"></rect>
        <filter x="-55.2%" y="-31.3%" width="210.4%" height="162.6%" filterUnits="objectBoundingBox" id="filter-7">
            <feOffset dx="0" dy="9" in="SourceAlpha" result="shadowOffsetOuter1"></feOffset>
            <feGaussianBlur stdDeviation="14.5" in="shadowOffsetOuter1" result="shadowBlurOuter1"></feGaussianBlur>
            <feColorMatrix values="0 0 0 0 0   0 0 0 0 0   0 0 0 0 0  0 0 0 0.15 0" type="matrix" in="shadowBlurOuter1" result="shadowMatrixOuter1"></feColorMatrix>
            <feMerge>
                <feMergeNode in="shadowMatrixOuter1"></feMergeNode>
                <feMergeNode in="SourceGraphic"></feMergeNode>
            </feMerge>
        </filter>
        <linearGradient x1="38.2595293%" y1="0%" x2="61.7404707%" y2="100%" id="linearGradient-8">
            <stop stop-color="#FFFFFF" offset="0%"></stop>
            <stop stop-color="#FEFEFE" offset="100%"></stop>
        </linearGradient>
        <ellipse id="path-9" cx="2.91379596" cy="2.91719561" rx="2.91379596" ry="2.91719561"></ellipse>
        <filter x="-25.7%" y="-25.7%" width="151.5%" height="151.4%" filterUnits="objectBoundingBox" id="filter-10">
            <feOffset dx="0" dy="0" in="SourceAlpha" result="shadowOffsetOuter1"></feOffset>
            <feGaussianBlur stdDeviation="0.5" in="shadowOffsetOuter1" result="shadowBlurOuter1"></feGaussianBlur>
            <feColorMatrix values="0 0 0 0 0.490619685   0 0 0 0 0.490619685   0 0 0 0 0.490619685  0 0 0 0.25 0" type="matrix" in="shadowBlurOuter1"></feColorMatrix>
        </filter>
        <filter x="-34.3%" y="-34.3%" width="168.6%" height="168.6%" filterUnits="objectBoundingBox" id="filter-11">
            <feGaussianBlur stdDeviation="0.5" in="SourceAlpha" result="shadowBlurInner1"></feGaussianBlur>
            <feOffset dx="1" dy="1" in="shadowBlurInner1" result="shadowOffsetInner1"></feOffset>
            <feComposite in="shadowOffsetInner1" in2="SourceAlpha" operator="arithmetic" k2="-1" k3="1" result="shadowInnerInner1"></feComposite>
            <feColorMatrix values="0 0 0 0 0   0 0 0 0 0   0 0 0 0 0  0 0 0 0.344061368 0" type="matrix" in="shadowInnerInner1"></feColorMatrix>
        </filter>
        <ellipse id="path-12" cx="2.91379596" cy="2.91719561" rx="2.18534697" ry="2.18789671"></ellipse>
        <filter x="-45.8%" y="-22.9%" width="191.5%" height="191.4%" filterUnits="objectBoundingBox" id="filter-13">
            <feOffset dx="0" dy="1" in="SourceAlpha" result="shadowOffsetOuter1"></feOffset>
            <feGaussianBlur stdDeviation="0.5" in="shadowOffsetOuter1" result="shadowBlurOuter1"></feGaussianBlur>
            <feColorMatrix values="0 0 0 0 0.490619685   0 0 0 0 0.490619685   0 0 0 0 0.490619685  0 0 0 0.428838315 0" type="matrix" in="shadowBlurOuter1"></feColorMatrix>
        </filter>
        <filter x="-45.8%" y="-22.9%" width="191.5%" height="191.4%" filterUnits="objectBoundingBox" id="filter-14">
            <feGaussianBlur stdDeviation="0.5" in="SourceAlpha" result="shadowBlurInner1"></feGaussianBlur>
            <feOffset dx="-1" dy="-1" in="shadowBlurInner1" result="shadowOffsetInner1"></feOffset>
            <feComposite in="shadowOffsetInner1" in2="SourceAlpha" operator="arithmetic" k2="-1" k3="1" result="shadowInnerInner1"></feComposite>
            <feColorMatrix values="0 0 0 0 0   0 0 0 0 0   0 0 0 0 0  0 0 0 0.344061368 0" type="matrix" in="shadowInnerInner1"></feColorMatrix>
        </filter>
        <rect id="path-15" x="0" y="1.70169744" width="24.281633" height="2.43099634" rx="1.21549817"></rect>
        <filter x="-6.2%" y="-61.7%" width="112.4%" height="223.4%" filterUnits="objectBoundingBox" id="filter-16">
            <feOffset dx="0" dy="0" in="SourceAlpha" result="shadowOffsetOuter1"></feOffset>
            <feGaussianBlur stdDeviation="0.5" in="shadowOffsetOuter1" result="shadowBlurOuter1"></feGaussianBlur>
            <feColorMatrix values="0 0 0 0 0.490619685   0 0 0 0 0.490619685   0 0 0 0 0.490619685  0 0 0 0.25 0" type="matrix" in="shadowBlurOuter1"></feColorMatrix>
        </filter>
        <filter x="-8.2%" y="-82.3%" width="116.5%" height="264.5%" filterUnits="objectBoundingBox" id="filter-17">
            <feGaussianBlur stdDeviation="0.5" in="SourceAlpha" result="shadowBlurInner1"></feGaussianBlur>
            <feOffset dx="1" dy="1" in="shadowBlurInner1" result="shadowOffsetInner1"></feOffset>
            <feComposite in="shadowOffsetInner1" in2="SourceAlpha" operator="arithmetic" k2="-1" k3="1" result="shadowInnerInner1"></feComposite>
            <feColorMatrix values="0 0 0 0 0   0 0 0 0 0   0 0 0 0 0  0 0 0 0.344061368 0" type="matrix" in="shadowInnerInner1"></feColorMatrix>
        </filter>
        <filter x="-53.2%" y="-33.3%" width="205.8%" height="167.1%" filterUnits="objectBoundingBox" id="filter-18">
            <feOffset dx="0" dy="10" in="SourceAlpha" result="shadowOffsetOuter1"></feOffset>
            <feGaussianBlur stdDeviation="16" in="shadowOffsetOuter1" result="shadowBlurOuter1"></feGaussianBlur>
            <feColorMatrix values="0 0 0 0 0   0 0 0 0 0   0 0 0 0 0  0 0 0 0.15 0" type="matrix" in="shadowBlurOuter1" result="shadowMatrixOuter1"></feColorMatrix>
            <feMerge>
                <feMergeNode in="shadowMatrixOuter1"></feMergeNode>
                <feMergeNode in="SourceGraphic"></feMergeNode>
            </feMerge>
        </filter>
        <linearGradient x1="0%" y1="18.1435493%" x2="100%" y2="81.8564507%" id="linearGradient-19">
            <stop stop-color="#C7C7C7" offset="0%"></stop>
            <stop stop-color="#EFEFEF" offset="51.299426%"></stop>
            <stop stop-color="#C1C1C1" offset="100%"></stop>
        </linearGradient>
        <polygon id="path-20" points="0 17.0329845 0 -4.26325641e-13 27.6587218 -4.26325641e-13 27.6587218 34.065969 0 34.065969 0 17.0329845"></polygon>
        <polygon id="path-22" points="0 -4.26325641e-13 27.6585287 -4.26325641e-13 27.6585287 34.065969 0 34.065969"></polygon>
    </defs>
    <g id="Page-1" stroke="none" stroke-width="1" fill="none" fill-rule="evenodd">
        <g id="2019_Marketing_Pricing_Scroll-Copy" transform="translate(-55.000000, -167.000000)">
            <g id="Group-3" transform="translate(376.153334, 396.664686) rotate(-15.000000) translate(-376.153334, -396.664686) translate(99.153334, 158.164686)">
                <ellipse id="Oval-Copy-3" fill="#2962EB" cx="165.447619" cy="72.9298893" rx="23.3823129" ry="23.4095941"></ellipse>
                <ellipse id="Oval-Copy" fill="#2B67F5" cx="407.584318" cy="215.316039" rx="91.7306122" ry="91.8376384"></ellipse>
                <ellipse id="Oval" fill="#00FE81" cx="62.4535342" cy="362.662809" rx="62.0530612" ry="62.1254613"></ellipse>
                <g id="Group-44" filter="url(#filter-1)" transform="translate(127.490806, 234.996310) rotate(-15.000000) translate(-127.490806, -234.996310) translate(44.753391, 89.136531)">
                    <polygon id="Path-126" fill="#FFFFFF" points="-3.63797881e-12 2.84217094e-14 -3.63797881e-12 291.4728 164.862535 291.4728 164.862535 2.84217094e-14 160.471725 4.38721674 156.080916 2.84217094e-14 151.690106 4.38721674 147.299296 2.84217094e-14 142.908487 4.38721674 138.517677 2.84217094e-14 134.126867 4.38721674 129.736058 2.84217094e-14 125.345248 4.38721674 120.954438 2.84217094e-14 116.563628 4.38721674 112.172819 2.84217094e-14 107.782009 4.38721674 103.391199 2.84217094e-14 99.0003897 4.38721674 94.60958 2.84217094e-14 90.7917399 3.81471602 86.9738998 2.84217094e-14 82.5830901 4.38721674 78.1922804 2.84217094e-14 73.8014707 4.38721674 69.410661 2.84217094e-14 65.0198513 4.38721674 60.6290416 2.84217094e-14 56.2382319 4.38721674 51.8474222 2.84217094e-14 47.4566125 4.38721674 43.0658028 2.84217094e-14 38.6749931 4.38721674 34.2841834 2.84217094e-14 29.8933737 4.38721674 25.502564 2.84217094e-14 21.6847238 3.81471602 17.8668837 2.84217094e-14 14.0490436 3.81471602 10.2312035 2.84217094e-14 6.41336334 3.81471602"></polygon>
                    <path d="M39.5903286,36.315284 L43.5845486,35.0324781 L44.1836816,36.6288587 L40.1609314,37.9116646 L42.7286443,41.3609871 L41.3591974,42.3872318 L38.7344243,38.8523889 L36.1096511,42.3872318 L34.7402042,41.3609871 L37.3079171,37.9116646 L33.2851669,36.6288587 L33.8842999,35.0324781 L37.87852,36.315284 L37.87852,32.238812 L39.5903286,32.238812 L39.5903286,36.315284 Z M52.0063751,36.5433383 L56.0005952,35.2605325 L56.5997282,36.8569131 L52.576978,38.139719 L55.1446909,41.5890414 L53.775244,42.6152861 L51.1504708,39.0804433 L48.5256977,42.6152861 L47.1562508,41.5890414 L49.7239637,38.139719 L45.7012135,36.8569131 L46.3003465,35.2605325 L50.2945665,36.5433383 L50.2945665,32.4668664 L52.0063751,32.4668664 L52.0063751,36.5433383 Z M64.4224217,36.5433383 L68.4166417,35.2605325 L69.0157747,36.8569131 L64.9930245,38.139719 L67.5607374,41.5890414 L66.1912906,42.6152861 L63.5665174,39.0804433 L60.9417442,42.6152861 L59.5722974,41.5890414 L62.1400102,38.139719 L58.1172601,36.8569131 L58.7163931,35.2605325 L62.7106131,36.5433383 L62.7106131,32.4668664 L64.4224217,32.4668664 L64.4224217,36.5433383 Z M76.8384682,36.5433383 L80.8326883,35.2605325 L81.4318213,36.8569131 L77.4090711,38.139719 L79.976784,41.5890414 L78.6073371,42.6152861 L75.9825639,39.0804433 L73.3577908,42.6152861 L71.9883439,41.5890414 L74.5560568,38.139719 L70.5333066,36.8569131 L71.1324396,35.2605325 L75.1266597,36.5433383 L75.1266597,32.4668664 L76.8384682,32.4668664 L76.8384682,36.5433383 Z M89.2545148,36.5433383 L93.2487348,35.2605325 L93.8478678,36.8569131 L89.8251177,38.139719 L92.3928305,41.5890414 L91.0233837,42.6152861 L88.3986105,39.0804433 L85.7738373,42.6152861 L84.4043905,41.5890414 L86.9721033,38.139719 L82.9493532,36.8569131 L83.5484862,35.2605325 L87.5427062,36.5433383 L87.5427062,32.4668664 L89.2545148,32.4668664 L89.2545148,36.5433383 Z M101.670561,36.5433383 L105.664781,35.2605325 L106.263914,36.8569131 L102.241164,38.139719 L104.808877,41.5890414 L103.43943,42.6152861 L100.814657,39.0804433 L98.1898839,42.6152861 L96.820437,41.5890414 L99.3881499,38.139719 L95.3653997,36.8569131 L95.9645327,35.2605325 L99.9587528,36.5433383 L99.9587528,32.4668664 L101.670561,32.4668664 L101.670561,36.5433383 Z M114.086608,36.5433383 L118.080828,35.2605325 L118.679961,36.8569131 L114.657211,38.139719 L117.224924,41.5890414 L115.855477,42.6152861 L113.230704,39.0804433 L110.60593,42.6152861 L109.236484,41.5890414 L111.804196,38.139719 L107.781446,36.8569131 L108.380579,35.2605325 L112.374799,36.5433383 L112.374799,32.4668664 L114.086608,32.4668664 L114.086608,36.5433383 Z M126.502654,36.5433383 L130.496875,35.2605325 L131.096008,36.8569131 L127.073257,38.139719 L129.64097,41.5890414 L128.271523,42.6152861 L125.64675,39.0804433 L123.021977,42.6152861 L121.65253,41.5890414 L124.220243,38.139719 L120.197493,36.8569131 L120.796626,35.2605325 L124.790846,36.5433383 L124.790846,32.4668664 L126.502654,32.4668664 L126.502654,36.5433383 Z" id="Combined-Shape" fill="#D4D4D4" fill-rule="nonzero"></path>
                    <path d="M39.5903286,212.176091 L43.5845486,210.893285 L44.1836816,212.489666 L40.1609314,213.772472 L42.7286443,217.221794 L41.3591974,218.248039 L38.7344243,214.713196 L36.1096511,218.248039 L34.7402042,217.221794 L37.3079171,213.772472 L33.2851669,212.489666 L33.8842999,210.893285 L37.87852,212.176091 L37.87852,208.099619 L39.5903286,208.099619 L39.5903286,212.176091 Z M52.0063751,212.404145 L56.0005952,211.121339 L56.5997282,212.71772 L52.576978,214.000526 L55.1446909,217.449848 L53.775244,218.476093 L51.1504708,214.94125 L48.5256977,218.476093 L47.1562508,217.449848 L49.7239637,214.000526 L45.7012135,212.71772 L46.3003465,211.121339 L50.2945665,212.404145 L50.2945665,208.327673 L52.0063751,208.327673 L52.0063751,212.404145 Z M64.4224217,212.404145 L68.4166417,211.121339 L69.0157747,212.71772 L64.9930245,214.000526 L67.5607374,217.449848 L66.1912906,218.476093 L63.5665174,214.94125 L60.9417442,218.476093 L59.5722974,217.449848 L62.1400102,214.000526 L58.1172601,212.71772 L58.7163931,211.121339 L62.7106131,212.404145 L62.7106131,208.327673 L64.4224217,208.327673 L64.4224217,212.404145 Z M76.8384682,212.404145 L80.8326883,211.121339 L81.4318213,212.71772 L77.4090711,214.000526 L79.976784,217.449848 L78.6073371,218.476093 L75.9825639,214.94125 L73.3577908,218.476093 L71.9883439,217.449848 L74.5560568,214.000526 L70.5333066,212.71772 L71.1324396,211.121339 L75.1266597,212.404145 L75.1266597,208.327673 L76.8384682,208.327673 L76.8384682,212.404145 Z M89.2545148,212.404145 L93.2487348,211.121339 L93.8478678,212.71772 L89.8251177,214.000526 L92.3928305,217.449848 L91.0233837,218.476093 L88.3986105,214.94125 L85.7738373,218.476093 L84.4043905,217.449848 L86.9721033,214.000526 L82.9493532,212.71772 L83.5484862,211.121339 L87.5427062,212.404145 L87.5427062,208.327673 L89.2545148,208.327673 L89.2545148,212.404145 Z M101.670561,212.404145 L105.664781,211.121339 L106.263914,212.71772 L102.241164,214.000526 L104.808877,217.449848 L103.43943,218.476093 L100.814657,214.94125 L98.1898839,218.476093 L96.820437,217.449848 L99.3881499,214.000526 L95.3653997,212.71772 L95.9645327,211.121339 L99.9587528,212.404145 L99.9587528,208.327673 L101.670561,208.327673 L101.670561,212.404145 Z M114.086608,212.404145 L118.080828,211.121339 L118.679961,212.71772 L114.657211,214.000526 L117.224924,217.449848 L115.855477,218.476093 L113.230704,214.94125 L110.60593,218.476093 L109.236484,217.449848 L111.804196,214.000526 L107.781446,212.71772 L108.380579,211.121339 L112.374799,212.404145 L112.374799,208.327673 L114.086608,208.327673 L114.086608,212.404145 Z M126.502654,212.404145 L130.496875,211.121339 L131.096008,212.71772 L127.073257,214.000526 L129.64097,217.449848 L128.271523,218.476093 L125.64675,214.94125 L123.021977,218.476093 L121.65253,217.449848 L124.220243,214.000526 L120.197493,212.71772 L120.796626,211.121339 L124.790846,212.404145 L124.790846,208.327673 L126.502654,208.327673 L126.502654,212.404145 Z" id="Combined-Shape" fill="#D4D4D4" fill-rule="nonzero"></path>
                    <rect id="Rectangle" fill="#282828" opacity="0.200000003" x="53.2562671" y="183.393728" width="58.9622957" height="8.55203914"></rect>
                    <rect id="Rectangle" fill="#282828" opacity="0.200000003" x="18.0690906" y="170.090556" width="54.2072719" height="7.60181257"></rect>
                    <rect id="Rectangle-Copy-34" fill="#282828" opacity="0.200000003" x="18.0690906" y="136.832626" width="54.2072719" height="7.60181257"></rect>
                    <rect id="Rectangle-Copy-36" fill="#282828" opacity="0.200000003" x="18.0690906" y="103.574696" width="54.2072719" height="7.60181257"></rect>
                    <rect id="Rectangle-Copy-38" fill="#282828" opacity="0.200000003" x="132.189663" y="90.2715242" width="14.2650715" height="7.60181257"></rect>
                    <rect id="Rectangle-Copy-39" fill="#282828" opacity="0.200000003" x="132.189663" y="123.529454" width="14.2650715" height="7.60181257"></rect>
                    <rect id="Rectangle-Copy-35" fill="#282828" opacity="0.200000003" x="18.0690906" y="123.529454" width="80.8354054" height="7.60181257"></rect>
                    <rect id="Rectangle-Copy-37" fill="#282828" opacity="0.200000003" x="18.0690906" y="90.2715242" width="65.6193291" height="7.60181257"></rect>
                    <rect id="Rectangle-Copy-36" fill="#282828" opacity="0.200000003" x="18.0690906" y="70.756246" width="54.2072719" height="7.60181257"></rect>
                    <rect id="Rectangle-Copy-38" fill="#282828" opacity="0.200000003" x="132.189663" y="57.453074" width="14.2650715" height="7.60181257"></rect>
                    <rect id="Rectangle-Copy-37" fill="#282828" opacity="0.200000003" x="18.0690906" y="57.453074" width="65.6193291" height="7.60181257"></rect>
                    <rect id="Rectangle" fill="#282828" opacity="0.200000003" x="78.9333959" y="170.090556" width="67.5213387" height="7.60181257"></rect>
                    <path d="M17.1180859,237.556643 L19.9711002,237.556643 L19.9711002,271.764799 L17.1180859,271.764799 L17.1180859,237.556643 Z M21.8731097,237.556643 L24.726124,237.556643 L24.726124,271.764799 L21.8731097,271.764799 L21.8731097,237.556643 Z M26.6281336,237.556643 L32.3341622,237.556643 L32.3341622,271.764799 L26.6281336,271.764799 L26.6281336,237.556643 Z M35.1871765,237.556643 L37.089186,237.556643 L37.089186,271.764799 L35.1871765,271.764799 L35.1871765,237.556643 Z M45.6482289,237.556643 L47.5502385,237.556643 L47.5502385,271.764799 L45.6482289,271.764799 L45.6482289,237.556643 Z M49.452248,237.556643 L51.3542576,237.556643 L51.3542576,271.764799 L49.452248,271.764799 L49.452248,237.556643 Z M53.2562671,237.556643 L55.1582766,237.556643 L55.1582766,271.764799 L53.2562671,271.764799 L53.2562671,237.556643 Z M64.6683243,237.556643 L66.5703339,237.556643 L66.5703339,271.764799 L64.6683243,271.764799 L64.6683243,237.556643 Z M68.4723434,237.556643 L71.3253577,237.556643 L71.3253577,271.764799 L68.4723434,271.764799 L68.4723434,237.556643 Z M73.2273673,237.556643 L74.178372,237.556643 L74.178372,271.764799 L73.2273673,271.764799 L73.2273673,237.556643 Z M76.0803816,237.556643 L77.0313863,237.556643 L77.0313863,271.764799 L76.0803816,271.764799 L76.0803816,237.556643 Z M79.8844007,237.556643 L84.6394245,237.556643 L84.6394245,271.764799 L79.8844007,271.764799 L79.8844007,237.556643 Z M86.541434,237.556643 L87.4924388,237.556643 L87.4924388,271.764799 L86.541434,271.764799 L86.541434,237.556643 Z M89.3944484,237.556643 L90.3454531,237.556643 L90.3454531,271.764799 L89.3944484,271.764799 L89.3944484,237.556643 Z M38.9911956,237.556643 L43.7462194,237.556643 L43.7462194,271.764799 L38.9911956,271.764799 L38.9911956,237.556643 Z M58.011291,237.556643 L62.7663148,237.556643 L62.7663148,271.764799 L58.011291,271.764799 L58.011291,237.556643 Z" id="Combined-Shape" fill="#282828"></path>
                </g>
                <g id="iphone-white" transform="translate(278.312245, 227.793358) rotate(-345.000000) translate(-278.312245, -227.793358) translate(174.440816, 20.708487)">
                    <g transform="translate(0.476640, 0.486199)">
                        <g id="body">
                            <use fill="black" fill-opacity="1" filter="url(#filter-4)" xlink:href="#path-3"></use>
                            <path stroke-opacity="0.04" stroke="#000000" stroke-width="0.680399991" d="M5.00128847,154.791023 L1.70099998,154.791023 C0.573676361,154.791023 -0.340199995,153.877147 -0.340199995,152.749823 L-0.340199995,126.400042 C-0.340199995,125.272718 0.573676361,124.358842 1.70099998,124.358842 L5.00128847,124.358842 L5.00128847,116.991628 L1.70099998,116.991628 C0.573676361,116.991628 -0.340199995,116.077752 -0.340199995,114.950429 L-0.340199995,88.6006466 C-0.340199995,87.473323 0.573676361,86.5594467 1.70099998,86.5594467 L5.00128847,86.5594467 L5.00128847,72.8516899 L1.70099998,72.8516899 C0.573676361,72.8516899 -0.340199995,71.9378135 -0.340199995,70.8104899 L-0.340199995,57.6295295 C-0.340199995,56.5022058 0.573676361,55.5883295 1.70099998,55.5883295 L5.00128847,55.5883295 L5.00128847,31.308098 C5.00128847,21.3810179 5.85035059,16.9842134 8.28715793,12.4277798 C10.4366956,8.40849376 13.593089,5.25210041 17.6123751,3.10256269 C22.1688086,0.665755359 26.5656132,-0.183306765 36.4926932,-0.183306765 L175.271029,-0.183306765 C185.198109,-0.183306765 189.594914,0.665755359 194.151348,3.10256269 C198.170634,5.25210041 201.327027,8.40849376 203.476565,12.4277798 C205.913372,16.9842134 206.762434,21.3810179 206.762434,31.308098 L206.762434,382.116495 C206.762434,392.043575 205.913372,396.44038 203.476565,400.996814 C201.327027,405.0161 198.170634,408.172493 194.151348,410.322031 C189.594914,412.758838 185.198109,413.6079 175.271029,413.6079 L36.4926932,413.6079 C26.5656132,413.6079 22.1688086,412.758838 17.6123751,410.322031 C13.593089,408.172493 10.4366956,405.0161 8.28715793,400.996814 C5.85035059,396.44038 5.00128847,392.043575 5.00128847,382.116495 L5.00128847,154.791023 Z" fill="url(#linearGradient-2)" fill-rule="evenodd"></path>
                        </g>
                        <g id="screen" transform="translate(14.389116, 9.003690)">
                            <path d="M20.6549997,0 L161.457248,0 C172.864689,1.81681735e-14 182.112247,9.24755837 182.112247,20.6549997 L182.112247,374.138806 C182.112247,385.546248 172.864689,394.793806 161.457248,394.793806 L20.6549997,394.793806 C9.24755837,394.793806 -2.15570502e-15,385.546248 -3.55271368e-15,374.138806 L0,20.6549997 C2.15570502e-15,9.24755837 9.24755837,2.09551298e-15 20.6549997,0 Z" id="masked-area"></path>
                            <mask id="mask-6" fill="white">
                                <use xlink:href="#path-5"></use>
                            </mask>
                            <use id="mask" fill="#F7F7F7" xlink:href="#path-5"></use>
                            <g id="Group-44" filter="url(#filter-7)" mask="url(#mask-6)">
                                <g transform="translate(66.968573, 177.873103) rotate(-15.000000) translate(-66.968573, -177.873103) translate(0.868573, 61.275317)">
                                    <polygon id="Path-126" fill="#FFFFFF" fill-rule="evenodd" points="-3.63797881e-12 2.84217094e-14 -3.63797881e-12 232.998318 131.71083 232.998318 131.71083 2.84217094e-14 128.202955 3.50706523 124.695079 2.84217094e-14 121.187204 3.50706523 117.679329 2.84217094e-14 114.171454 3.50706523 110.663579 2.84217094e-14 107.155704 3.50706523 103.647829 2.84217094e-14 100.139953 3.50706523 96.6320783 2.84217094e-14 93.1242032 3.50706523 89.6163281 2.84217094e-14 86.1084529 3.50706523 82.6005778 2.84217094e-14 79.0927026 3.50706523 75.5848275 2.84217094e-14 72.5347052 3.04941805 69.484583 2.84217094e-14 65.9767078 3.50706523 62.4688327 2.84217094e-14 58.9609575 3.50706523 55.4530824 2.84217094e-14 51.9452073 3.50706523 48.4373321 2.84217094e-14 44.929457 3.50706523 41.4215818 2.84217094e-14 37.9137067 3.50706523 34.4058316 2.84217094e-14 30.8979564 3.50706523 27.3900813 2.84217094e-14 23.8822061 3.50706523 20.374331 2.84217094e-14 17.3242087 3.04941805 14.2740864 2.84217094e-14 11.2239642 3.04941805 8.1738419 2.84217094e-14 5.12371963 3.04941805"></polygon>
                                    <path d="M31.6292299,29.0298103 L34.8202644,28.0043575 L35.2989195,29.2804766 L32.085092,30.3059294 L34.1364713,33.0632582 L33.0424023,33.8836204 L30.9454368,31.0579282 L28.8484713,33.8836204 L27.7544023,33.0632582 L29.8057816,30.3059294 L26.591954,29.2804766 L27.0706092,28.0043575 L30.2616437,29.0298103 L30.2616437,25.7711491 L31.6292299,25.7711491 L31.6292299,29.0298103 Z M41.5485714,29.2121131 L44.7396059,28.1866602 L45.2182611,29.4627793 L42.0044335,30.4882321 L44.0558128,33.2455609 L42.9617438,34.0659232 L40.8647783,31.2402309 L38.7678128,34.0659232 L37.6737438,33.2455609 L39.7251232,30.4882321 L36.5112956,29.4627793 L36.9899507,28.1866602 L40.1809852,29.2121131 L40.1809852,25.9534518 L41.5485714,25.9534518 L41.5485714,29.2121131 Z M51.467913,29.2121131 L54.6589475,28.1866602 L55.1376026,29.4627793 L51.923775,30.4882321 L53.9751544,33.2455609 L52.8810854,34.0659232 L50.7841199,31.2402309 L48.6871544,34.0659232 L47.5930854,33.2455609 L49.6444647,30.4882321 L46.4306371,29.4627793 L46.9092923,28.1866602 L50.1003268,29.2121131 L50.1003268,25.9534518 L51.467913,25.9534518 L51.467913,29.2121131 Z M61.3872545,29.2121131 L64.578289,28.1866602 L65.0569442,29.4627793 L61.8431166,30.4882321 L63.8944959,33.2455609 L62.8004269,34.0659232 L60.7034614,31.2402309 L58.6064959,34.0659232 L57.5124269,33.2455609 L59.5638062,30.4882321 L56.3499787,29.4627793 L56.8286338,28.1866602 L60.0196683,29.2121131 L60.0196683,25.9534518 L61.3872545,25.9534518 L61.3872545,29.2121131 Z M71.3065961,29.2121131 L74.4976305,28.1866602 L74.9762857,29.4627793 L71.7624581,30.4882321 L73.8138374,33.2455609 L72.7197685,34.0659232 L70.622803,31.2402309 L68.5258374,34.0659232 L67.4317685,33.2455609 L69.4831478,30.4882321 L66.2693202,29.4627793 L66.7479754,28.1866602 L69.9390099,29.2121131 L69.9390099,25.9534518 L71.3065961,25.9534518 L71.3065961,29.2121131 Z M81.2259376,29.2121131 L84.4169721,28.1866602 L84.8956273,29.4627793 L81.6817997,30.4882321 L83.733179,33.2455609 L82.63911,34.0659232 L80.5421445,31.2402309 L78.445179,34.0659232 L77.35111,33.2455609 L79.4024893,30.4882321 L76.1886617,29.4627793 L76.6673169,28.1866602 L79.8583514,29.2121131 L79.8583514,25.9534518 L81.2259376,25.9534518 L81.2259376,29.2121131 Z M91.1452791,29.2121131 L94.3363136,28.1866602 L94.8149688,29.4627793 L91.6011412,30.4882321 L93.6525205,33.2455609 L92.5584516,34.0659232 L90.461486,31.2402309 L88.3645205,34.0659232 L87.2704516,33.2455609 L89.3218309,30.4882321 L86.1080033,29.4627793 L86.5866585,28.1866602 L89.7776929,29.2121131 L89.7776929,25.9534518 L91.1452791,25.9534518 L91.1452791,29.2121131 Z M101.064621,29.2121131 L104.255655,28.1866602 L104.73431,29.4627793 L101.520483,30.4882321 L103.571862,33.2455609 L102.477793,34.0659232 L100.380828,31.2402309 L98.2838621,34.0659232 L97.1897931,33.2455609 L99.2411724,30.4882321 L96.0273448,29.4627793 L96.506,28.1866602 L99.6970345,29.2121131 L99.6970345,25.9534518 L101.064621,25.9534518 L101.064621,29.2121131 Z" id="Combined-Shape" fill="#D4D4D4" fill-rule="nonzero"></path>
                                    <path d="M31.6292299,169.6099 L34.8202644,168.584447 L35.2989195,169.860566 L32.085092,170.886019 L34.1364713,173.643348 L33.0424023,174.46371 L30.9454368,171.638018 L28.8484713,174.46371 L27.7544023,173.643348 L29.8057816,170.886019 L26.591954,169.860566 L27.0706092,168.584447 L30.2616437,169.6099 L30.2616437,166.351239 L31.6292299,166.351239 L31.6292299,169.6099 Z M41.5485714,169.792203 L44.7396059,168.76675 L45.2182611,170.042869 L42.0044335,171.068322 L44.0558128,173.82565 L42.9617438,174.646013 L40.8647783,171.82032 L38.7678128,174.646013 L37.6737438,173.82565 L39.7251232,171.068322 L36.5112956,170.042869 L36.9899507,168.76675 L40.1809852,169.792203 L40.1809852,166.533541 L41.5485714,166.533541 L41.5485714,169.792203 Z M51.467913,169.792203 L54.6589475,168.76675 L55.1376026,170.042869 L51.923775,171.068322 L53.9751544,173.82565 L52.8810854,174.646013 L50.7841199,171.82032 L48.6871544,174.646013 L47.5930854,173.82565 L49.6444647,171.068322 L46.4306371,170.042869 L46.9092923,168.76675 L50.1003268,169.792203 L50.1003268,166.533541 L51.467913,166.533541 L51.467913,169.792203 Z M61.3872545,169.792203 L64.578289,168.76675 L65.0569442,170.042869 L61.8431166,171.068322 L63.8944959,173.82565 L62.8004269,174.646013 L60.7034614,171.82032 L58.6064959,174.646013 L57.5124269,173.82565 L59.5638062,171.068322 L56.3499787,170.042869 L56.8286338,168.76675 L60.0196683,169.792203 L60.0196683,166.533541 L61.3872545,166.533541 L61.3872545,169.792203 Z M71.3065961,169.792203 L74.4976305,168.76675 L74.9762857,170.042869 L71.7624581,171.068322 L73.8138374,173.82565 L72.7197685,174.646013 L70.622803,171.82032 L68.5258374,174.646013 L67.4317685,173.82565 L69.4831478,171.068322 L66.2693202,170.042869 L66.7479754,168.76675 L69.9390099,169.792203 L69.9390099,166.533541 L71.3065961,166.533541 L71.3065961,169.792203 Z M81.2259376,169.792203 L84.4169721,168.76675 L84.8956273,170.042869 L81.6817997,171.068322 L83.733179,173.82565 L82.63911,174.646013 L80.5421445,171.82032 L78.445179,174.646013 L77.35111,173.82565 L79.4024893,171.068322 L76.1886617,170.042869 L76.6673169,168.76675 L79.8583514,169.792203 L79.8583514,166.533541 L81.2259376,166.533541 L81.2259376,169.792203 Z M91.1452791,169.792203 L94.3363136,168.76675 L94.8149688,170.042869 L91.6011412,171.068322 L93.6525205,173.82565 L92.5584516,174.646013 L90.461486,171.82032 L88.3645205,174.646013 L87.2704516,173.82565 L89.3218309,171.068322 L86.1080033,170.042869 L86.5866585,168.76675 L89.7776929,169.792203 L89.7776929,166.533541 L91.1452791,166.533541 L91.1452791,169.792203 Z M101.064621,169.792203 L104.255655,168.76675 L104.73431,170.042869 L101.520483,171.068322 L103.571862,173.82565 L102.477793,174.646013 L100.380828,171.82032 L98.2838621,174.646013 L97.1897931,173.82565 L99.2411724,171.068322 L96.0273448,170.042869 L96.506,168.76675 L99.6970345,169.792203 L99.6970345,166.533541 L101.064621,166.533541 L101.064621,169.792203 Z" id="Combined-Shape" fill="#D4D4D4" fill-rule="nonzero"></path>
                                    <rect id="Rectangle" fill="#282828" fill-rule="evenodd" opacity="0.200000003" x="42.5471264" y="146.601777" width="47.1057471" height="6.83635227"></rect>
                                    <rect id="Rectangle" fill="#282828" fill-rule="evenodd" opacity="0.200000003" x="14.4356322" y="135.967451" width="43.3068966" height="6.07675758"></rect>
                                    <rect id="Rectangle-Copy-34" fill="#282828" fill-rule="evenodd" opacity="0.200000003" x="14.4356322" y="109.381636" width="43.3068966" height="6.07675758"></rect>
                                    <rect id="Rectangle-Copy-36" fill="#282828" fill-rule="evenodd" opacity="0.200000003" x="14.4356322" y="82.795822" width="43.3068966" height="6.07675758"></rect>
                                    <rect id="Rectangle-Copy-38" fill="#282828" fill-rule="evenodd" opacity="0.200000003" x="105.608046" y="72.1614962" width="11.3965517" height="6.07675758"></rect>
                                    <rect id="Rectangle-Copy-39" fill="#282828" fill-rule="evenodd" opacity="0.200000003" x="105.608046" y="98.7473106" width="11.3965517" height="6.07675758"></rect>
                                    <rect id="Rectangle-Copy-35" fill="#282828" fill-rule="evenodd" opacity="0.200000003" x="14.4356322" y="98.7473106" width="64.5804598" height="6.07675758"></rect>
                                    <rect id="Rectangle-Copy-37" fill="#282828" fill-rule="evenodd" opacity="0.200000003" x="14.4356322" y="72.1614962" width="52.4241379" height="6.07675758"></rect>
                                    <rect id="Rectangle-Copy-36" fill="#282828" fill-rule="evenodd" opacity="0.200000003" x="14.4356322" y="56.5613201" width="43.3068966" height="6.07675758"></rect>
                                    <rect id="Rectangle-Copy-38" fill="#282828" fill-rule="evenodd" opacity="0.200000003" x="105.608046" y="45.9269944" width="11.3965517" height="6.07675758"></rect>
                                    <rect id="Rectangle-Copy-37" fill="#282828" fill-rule="evenodd" opacity="0.200000003" x="14.4356322" y="45.9269944" width="52.4241379" height="6.07675758"></rect>
                                    <rect id="Rectangle" fill="#282828" fill-rule="evenodd" opacity="0.200000003" x="63.0609195" y="135.967451" width="53.9436782" height="6.07675758"></rect>
                                    <path d="M13.6758621,189.898674 L15.9551724,189.898674 L15.9551724,217.244083 L13.6758621,217.244083 L13.6758621,189.898674 Z M17.4747126,189.898674 L19.754023,189.898674 L19.754023,217.244083 L17.4747126,217.244083 L17.4747126,189.898674 Z M21.2735632,189.898674 L25.8321839,189.898674 L25.8321839,217.244083 L21.2735632,217.244083 L21.2735632,189.898674 Z M28.1114943,189.898674 L29.6310345,189.898674 L29.6310345,217.244083 L28.1114943,217.244083 L28.1114943,189.898674 Z M36.4689655,189.898674 L37.9885057,189.898674 L37.9885057,217.244083 L36.4689655,217.244083 L36.4689655,189.898674 Z M39.508046,189.898674 L41.0275862,189.898674 L41.0275862,217.244083 L39.508046,217.244083 L39.508046,189.898674 Z M42.5471264,189.898674 L44.0666667,189.898674 L44.0666667,217.244083 L42.5471264,217.244083 L42.5471264,189.898674 Z M51.6643678,189.898674 L53.183908,189.898674 L53.183908,217.244083 L51.6643678,217.244083 L51.6643678,189.898674 Z M54.7034483,189.898674 L56.9827586,189.898674 L56.9827586,217.244083 L54.7034483,217.244083 L54.7034483,189.898674 Z M58.5022989,189.898674 L59.262069,189.898674 L59.262069,217.244083 L58.5022989,217.244083 L58.5022989,189.898674 Z M60.7816092,189.898674 L61.5413793,189.898674 L61.5413793,217.244083 L60.7816092,217.244083 L60.7816092,189.898674 Z M63.8206897,189.898674 L67.6195402,189.898674 L67.6195402,217.244083 L63.8206897,217.244083 L63.8206897,189.898674 Z M69.1390805,189.898674 L69.8988506,189.898674 L69.8988506,217.244083 L69.1390805,217.244083 L69.1390805,189.898674 Z M71.4183908,189.898674 L72.1781609,189.898674 L72.1781609,217.244083 L71.4183908,217.244083 L71.4183908,189.898674 Z M31.1505747,189.898674 L34.9494253,189.898674 L34.9494253,217.244083 L31.1505747,217.244083 L31.1505747,189.898674 Z M46.345977,189.898674 L50.1448276,189.898674 L50.1448276,217.244083 L46.345977,217.244083 L46.345977,189.898674 Z" id="Combined-Shape" fill="#282828" fill-rule="evenodd"></path>
                                </g>
                            </g>
                        </g>
                        <g id="Group-2" transform="translate(71.731073, 151.431502)" stroke="#2B67F5" stroke-width="1.79999995">
                            <polyline id="Path-154" points="53.9591837 0 71.9455782 0 71.9455782 18.0073801"></polyline>
                            <polyline id="Path-155" points="71.9455782 54.0221402 71.9455782 72.0295203 53.9591837 72.0295203"></polyline>
                            <polyline id="Path-156" points="17.9863946 72.0295203 2.18278728e-11 72.0295203 2.18278728e-11 54.0221402"></polyline>
                            <polyline id="Path-157" points="7.27595761e-12 18.0073801 7.27595761e-12 1.8189894e-12 17.9863946 1.8189894e-12"></polyline>
                            <ellipse id="Oval" cx="35.9727891" cy="36.0147601" rx="17.9863946" ry="18.0073801"></ellipse>
                        </g>
                        <path d="M10.4227234,334.368796 L198.380546,334.368796 L198.380546,382.998317 C198.380546,395.921779 187.90401,406.398316 174.980547,406.398316 L33.8227227,406.398316 C20.8992599,406.398316 10.4227234,395.921779 10.4227234,382.998317 L10.4227234,334.368796 Z" id="Rectangle" fill="#565656"></path>
                        <ellipse id="Oval" stroke="#E4E4E4" stroke-width="0.899999976" fill="#FFFFFF" opacity="0.5" cx="104.415909" cy="370.024232" rx="22.4829932" ry="22.5092251"></ellipse>
                        <ellipse id="Oval" stroke="#858585" stroke-width="0.899999976" fill="#FFFFFF" opacity="0.5" cx="104.415909" cy="370.024232" rx="16.1877551" ry="16.2066421"></ellipse>
                        <path d="M55.1078639,8.8506274 L34.9631767,8.8506274 C23.5557353,8.8506274 14.308177,18.0981858 14.308177,29.5056271 L14.308177,382.989434 C14.308177,394.396875 23.5557353,403.644433 34.9631767,403.644433 L175.765425,403.644433 C187.172866,403.644433 196.420424,394.396875 196.420424,382.989434 L196.420424,29.5056271 C196.420424,18.0981858 187.172866,8.8506274 175.765425,8.8506274 L155.620737,8.8506274 C155.625081,8.93051127 155.627281,9.01096549 155.627281,9.09193356 L155.627281,18.0922994 C155.627281,23.3263019 151.384284,27.5692992 146.150281,27.5692992 L64.5783202,27.5692992 C59.3443177,27.5692992 55.1013204,23.3263019 55.1013204,18.0922994 L55.1013204,9.09193356 C55.1013204,9.01096549 55.1035204,8.93051127 55.1078639,8.8506274 Z M37.4464429,1.80073801 L173.282158,1.80073801 C184.114111,1.80073801 188.042039,2.92856917 192.002039,5.04640032 C195.962039,7.16423146 199.06987,10.2720626 201.187701,14.2320625 C203.305532,18.1920625 204.433363,22.1199902 204.433363,32.9519428 L204.433363,379.543118 C204.433363,390.375071 203.305532,394.302998 201.187701,398.262998 C199.06987,402.222998 195.962039,405.330829 192.002039,407.44866 C188.042039,409.566492 184.114111,410.694323 173.282158,410.694323 L37.4464429,410.694323 C26.6144903,410.694323 22.6865626,409.566492 18.7265626,407.44866 C14.7665627,405.330829 11.6587316,402.222998 9.5409004,398.262998 C7.42306926,394.302998 6.2952381,390.375071 6.2952381,379.543118 L6.2952381,32.9519428 C6.2952381,22.1199902 7.42306926,18.1920625 9.5409004,14.2320625 C11.6587316,10.2720626 14.7665627,7.16423146 18.7265626,5.04640032 C22.6865626,2.92856917 26.6144903,1.80073801 37.4464429,1.80073801 Z" id="screen-frame" stroke-opacity="0.03" stroke="#000000" stroke-width="1.16640003" fill="url(#linearGradient-8)"></path>
                        <g id="sensor-camera" opacity="0.6" transform="translate(92.270205, 13.127380)">
                            <g id="Group" opacity="0.75" transform="translate(36.422449, 0.000000)">
                                <g id="Oval">
                                    <use fill="black" fill-opacity="1" filter="url(#filter-10)" xlink:href="#path-9"></use>
                                    <use fill="#9092A5" fill-rule="evenodd" xlink:href="#path-9"></use>
                                    <use fill="black" fill-opacity="1" filter="url(#filter-11)" xlink:href="#path-9"></use>
                                </g>
                                <g id="Oval">
                                    <use fill="black" fill-opacity="1" filter="url(#filter-13)" xlink:href="#path-12"></use>
                                    <use fill="#9092A5" fill-rule="evenodd" xlink:href="#path-12"></use>
                                    <use fill="black" fill-opacity="1" filter="url(#filter-14)" xlink:href="#path-12"></use>
                                </g>
                            </g>
                            <g id="Rectangle-2">
                                <use fill="black" fill-opacity="1" filter="url(#filter-16)" xlink:href="#path-15"></use>
                                <use fill="#9092A5" fill-rule="evenodd" xlink:href="#path-15"></use>
                                <use fill="black" fill-opacity="1" filter="url(#filter-17)" xlink:href="#path-15"></use>
                            </g>
                        </g>
                    </g>
                </g>
                <g id="Group-5-Copy-2" filter="url(#filter-18)" transform="translate(426.542656, 332.697446) rotate(-330.000000) translate(-426.542656, -332.697446) translate(349.542656, 211.197446)">
                    <g id="Card-Copy-4">
                        <g id="Group-10-Copy-25" transform="translate(77.000000, 121.500000) rotate(-180.000000) translate(-77.000000, -121.500000) translate(0.000000, 0.000000)">
                            <g id="Group-2-Copy-6" transform="translate(76.716112, 121.448091) rotate(-90.000000) translate(-76.716112, -121.448091) translate(-44.457572, 44.903091)">
                                <g id="1-copy-58" transform="translate(-0.000000, -0.000000)">
                                    <path d="M-2.84217094e-13,9.00210311 C-2.84217094e-13,4.02994149 4.01746555,7.38964445e-13 8.97200743,7.38964445e-13 L233.272193,7.38964445e-13 C238.227732,7.38964445e-13 242.244201,4.02994149 242.244201,9.00210311 L242.244201,144.03365 C242.244201,149.004811 238.227732,153.035753 233.272193,153.035753 L8.97200743,153.035753 C4.01746555,153.035753 -2.84217094e-13,149.004811 -2.84217094e-13,144.03365 L-2.84217094e-13,9.00210311 Z" id="Stroke-1" fill="#2AFC86"></path>
                                    <path d="M54.9435141,79.768083 L30.4955568,79.768083 C28.4340532,79.768083 26.7473684,78.3079924 26.7473684,76.5234372 L26.7473684,57.5137828 C26.7473684,55.7300906 28.4340532,54.27 30.4955568,54.27 L54.9435141,54.27 C57.0050177,54.27 58.6917024,55.7300906 58.6917024,57.5137828 L58.6917024,76.5234372 C58.6917024,78.3079924 57.0050177,79.768083 54.9435141,79.768083 Z" id="Stroke-3" fill="url(#linearGradient-19)"></path>
                                    <path d="M46.7796479,71.0887701 L38.6604198,71.0887701 L38.6604198,62.8849703 L46.7796479,62.8849703 L46.7796479,71.0887701 Z M58.6392486,59.7326754 L58.5867947,59.7851293 L58.4417024,59.7851293 L58.4417024,59.6802216 L58.5867947,59.6802216 L58.6392486,59.7326754 Z M50.0913156,59.7851293 L49.985087,59.7851293 L49.985087,59.6802216 L50.0913156,59.6802216 L50.0913156,59.7851293 Z M46.6734194,62.9307693 L38.7656515,62.9909877 L38.7656515,71.0439714 L46.6734194,70.983753 L46.6734194,62.9307693 Z M35.4539839,59.7851293 L35.3487522,59.7851293 L35.3487522,59.6802216 L35.4539839,59.6802216 L35.4539839,59.7851293 Z M35.3487522,54.52 L35.3487522,54.3752317 L35.401368,54.3226158 L35.4539839,54.3752317 L35.4539839,54.52 L35.3487522,54.52 Z M26.9973684,74.294519 L26.8512759,74.294519 L26.7993222,74.2425653 L26.8512759,74.1906116 L26.9973684,74.1906116 L26.9973684,74.294519 Z M50.0913156,79.5029436 L50.0913156,79.646715 L50.0382013,79.6998293 L49.985087,79.646715 L49.985087,79.5029436 L50.0913156,79.5029436 Z M58.4417024,74.1906116 L58.587795,74.1906116 L58.6397487,74.2425653 L58.587795,74.294519 L58.4417024,74.294519 L58.4417024,74.1906116 Z M58.4417024,66.9359167 L58.587795,66.9359167 L58.6397487,66.9878704 L58.587795,67.0398242 L58.4417024,67.0398242 L58.4417024,66.9359167 Z" id="Fill-5" stroke="#000000" stroke-width="0.5"></path>
                                </g>
                            </g>
                        </g>
                        <path d="M123.89687,50.0165572 C123.451261,50.3486348 122.825214,50.2546129 122.495243,49.8075084 C122.164276,49.3614042 122.256987,48.731257 122.700603,48.4001796 C123.19506,48.0330939 123.745343,47.7430261 124.340486,47.5419791 C124.933636,47.3409322 125.571645,47.2329069 126.229592,47.2329069 C126.88754,47.2329069 127.525549,47.3409322 128.118698,47.5419791 C128.713841,47.7430261 129.266118,48.0330939 129.757585,48.4011799 C130.200204,48.7332574 130.295905,49.3624044 129.965935,49.8085086 C129.634968,50.2556131 129.006927,50.3486348 128.562314,50.0175575 C128.235334,49.7745007 127.87147,49.5814556 127.478695,49.4494247 C127.086917,49.3163937 126.669221,49.2443768 126.229592,49.2443768 C125.789964,49.2443768 125.370273,49.3163937 124.979493,49.4494247 C124.587715,49.5814556 124.222853,49.7735005 123.89687,50.0165572 Z M121.831376,46.4367264 C121.360844,46.7267941 120.743769,46.5787596 120.452677,46.1066493 C120.161585,45.6335387 120.308128,45.0133938 120.77866,44.7233261 C122.305895,43.777105 124.112259,43.2299772 126.03526,43.2319777 C127.95826,43.2299772 129.764624,43.777105 131.290862,44.7233261 C131.763388,45.0133938 131.908934,45.6335387 131.617842,46.1066493 C131.32675,46.5787596 130.709675,46.7267941 130.239143,46.4367264 C129.013966,45.6785492 127.579442,45.2434476 126.03526,45.2434476 C124.490081,45.2434476 123.055556,45.6785492 121.831376,46.4367264 Z M119.818535,42.8938932 C119.340028,43.1759591 118.72395,43.012921 118.445818,42.5338091 C118.167685,42.0526967 118.327188,41.4385532 118.806692,41.1564873 C120.896172,39.9322013 123.333568,39.2310375 125.925481,39.2310375 C128.518391,39.2310375 130.955787,39.9322013 133.047261,41.1584878 C133.524771,41.4385532 133.686268,42.0546972 133.406142,42.5348093 C133.126015,43.012921 132.511931,43.1769593 132.032427,42.8958937 C130.239023,41.8426476 128.157517,41.2425074 125.925481,41.2425074 C123.694442,41.2425074 121.611939,41.8426476 119.818535,42.8938932 Z M125.834102,37.2445734 C122.914212,37.2445734 120.181738,38.0157536 117.815122,39.3670693 C117.334621,39.6411333 116.72253,39.4720938 116.447389,38.9909814 C116.172247,38.5078685 116.341719,37.8927248 116.822219,37.6186608 C119.479927,36.0983056 122.55932,35.2301028 125.834102,35.2301028 C129.108885,35.2301028 132.190271,36.0983056 134.847979,37.6186608 C135.327483,37.8947253 135.495958,38.5078685 135.22281,38.9909814 C134.948665,39.4720938 134.337572,39.6411333 133.855077,39.3670693 C131.489458,38.0157536 128.755986,37.2445734 125.834102,37.2445734 Z" id="Combined-Shape-Copy-5" fill="#000000" transform="translate(125.834550, 42.722942) rotate(-270.000000) translate(-125.834550, -42.722942) "></path>
                        <path d="M46.2,87.5483827 L46.2,88.0316314 C46.2,90.753502 48.4065121,92.9600141 51.1283827,92.9600141 L60.0490411,92.9600141 L80.9400572,92.9600141 C90.6987047,92.9600141 98.4755147,101.061415 98.4755147,111.055039 C98.4755147,121.048662 90.6987047,129.150063 81.105486,129.150063 C81.0686506,129.150063 74.0498356,129.150063 60.0490411,129.150063 L56.1257306,129.150063 L51.1283827,129.150063 C48.4065121,129.150063 46.2,131.356576 46.2,134.078446 L46.2,139.490078 L46.2,170.751744 C46.2,173.473615 48.4065121,175.680127 51.1283827,175.680127 L51.1973479,175.680127 C53.9192185,175.680127 56.1257306,173.473615 56.1257306,170.751744 L56.1257306,139.490078 L80.9400572,139.490078 C96.1803549,139.490078 108.401245,126.759108 108.401245,111.055039 C108.401245,95.35097 96.1803549,82.62 81.105486,82.62 C71.1131183,82.62 61.1207505,82.62 51.1283827,82.62 L51.1283827,82.62 C48.4065121,82.62 46.2,84.8265121 46.2,87.5483827 Z" id="Combined-Shape-Copy-37" fill="#000000"></path>
                    </g>
                    <g id="Page-1" transform="translate(86.843666, 191.679308)">
                        <polygon id="Fill-1" fill="#E95A0C" points="20.2631579 30.833416 35.2222739 30.833416 35.2222739 4.05 20.2631579 4.05"></polygon>
                        <g id="Group-12" transform="translate(0.000000, 0.007873)">
                            <g id="Group-4">
                                <mask id="mask-21" fill="white">
                                    <use xlink:href="#path-20"></use>
                                </mask>
                                <g id="Clip-3"></g>
                                <path d="M21.1293168,17.0333212 C21.1293168,11.6012081 23.6843014,6.75983478 27.6587218,3.64161324 C24.7503267,1.36043359 21.0820023,-4.26325641e-13 17.0940634,-4.26325641e-13 C7.65336646,-4.26325641e-13 0,7.6267023 0,17.0333212 C0,26.4409023 7.65336646,34.0666425 17.0940634,34.0666425 C21.0820023,34.0666425 24.7503267,32.7062089 27.6587218,30.4250292 C23.6843014,27.3077698 21.1293168,22.4663965 21.1293168,17.0333212" id="Fill-2" fill="#DE0716" mask="url(#mask-21)"></path>
                            </g>
                            <path d="M54.935416,28.3560178 L54.935416,27.54 L54.7625731,27.54 L54.5626934,28.1018289 L54.3637792,27.54 L54.1909363,27.54 L54.1909363,28.3560178 L54.3116367,28.3560178 L54.3116367,27.7395502 L54.4999292,28.2716841 L54.6264231,28.2716841 L54.81375,27.7383624 L54.81375,28.3560178 L54.935416,28.3560178 Z M53.8384914,28.3560178 L53.8384914,27.6801603 L54.06058,27.6801603 L54.06058,27.5411878 L53.4947368,27.5411878 L53.4947368,27.6801603 L53.7168254,27.6801603 L53.7168254,28.3560178 L53.8384914,28.3560178 Z" id="Fill-5" fill="#000000"></path>
                            <g id="Group-9" transform="translate(27.571566, 0.000000)">
                                <mask id="mask-23" fill="white">
                                    <use xlink:href="#path-22"></use>
                                </mask>
                                <g id="Clip-8"></g>
                                <path d="M27.6587218,17.0333212 C27.6587218,26.4409023 20.0063209,34.0666425 10.5646584,34.0666425 C6.57671953,34.0666425 2.90742952,32.7062089 0,30.4250292 C3.97731724,27.3077698 6.529405,22.4663965 6.529405,17.0333212 C6.529405,11.6012081 3.97731724,6.75983478 0,3.64161324 C2.90742952,1.36043359 6.57671953,-4.26325641e-13 10.5646584,-4.26325641e-13 C20.0063209,-4.26325641e-13 27.6587218,7.6267023 27.6587218,17.0333212" id="Fill-7" fill="#F49D00" mask="url(#mask-23)"></path>
                            </g>
                            <path d="M53.7890861,42.4516865 L53.7890861,42.5632921 L53.8924056,42.5632921 C53.9146145,42.5632921 53.9339265,42.5584815 53.9484106,42.5488603 C53.961929,42.5402013 53.9696538,42.5257695 53.9696538,42.5065272 C53.9696538,42.488247 53.961929,42.4738152 53.9484106,42.4651561 C53.9339265,42.4564971 53.9146145,42.4516865 53.8924056,42.4516865 L53.7890861,42.4516865 Z M53.8933712,42.3727929 C53.947445,42.3727929 53.9880003,42.3853004 54.0169683,42.4083912 C54.0459364,42.431482 54.0613861,42.4651561 54.0613861,42.5065272 C54.0613861,42.5411634 54.0497988,42.5700269 54.0256588,42.5921556 C54.0034499,42.6142843 53.9696538,42.6277539 53.9271673,42.6316024 L54.0642829,42.7913138 L53.957101,42.7913138 L53.8296414,42.6344888 L53.7890861,42.6344888 L53.7890861,42.7913138 L53.6992851,42.7913138 L53.6992851,42.3727929 L53.8933712,42.3727929 Z M53.8663343,42.9337072 C53.9146145,42.9337072 53.9599978,42.9250481 54.0024843,42.9067679 C54.0449708,42.8884877 54.0806981,42.8634726 54.112563,42.8326849 C54.1453935,42.7999729 54.1714648,42.7634124 54.18788,42.7210793 C54.2062265,42.677784 54.2149169,42.6316024 54.2149169,42.5844587 C54.2149169,42.5353907 54.2062265,42.4892091 54.18788,42.447838 C54.1714648,42.4045428 54.1453935,42.3679823 54.112563,42.3362325 C54.0806981,42.3044826 54.0449708,42.2794675 54.0024843,42.2611873 C53.9599978,42.2438692 53.9146145,42.2332859 53.8663343,42.2332859 C53.8170886,42.2332859 53.7707397,42.2438692 53.7292188,42.2611873 C53.684801,42.2794675 53.6481081,42.3044826 53.6152777,42.3362325 C53.5843784,42.3679823 53.5592727,42.4045428 53.5409263,42.447838 C53.5235454,42.4892091 53.5138894,42.5353907 53.5138894,42.5844587 C53.5138894,42.6316024 53.5235454,42.677784 53.5409263,42.7210793 C53.5592727,42.7634124 53.5843784,42.7999729 53.6152777,42.8326849 C53.6481081,42.8634726 53.684801,42.8884877 53.7292188,42.9067679 C53.7707397,42.9250481 53.8170886,42.9337072 53.8663343,42.9337072 L53.8663343,42.9337072 Z M53.8663343,42.1341879 C53.9300641,42.1341879 53.9889659,42.1457333 54.0449708,42.1697862 C54.1009758,42.1919149 54.1492559,42.225589 54.1907768,42.2659979 C54.2332633,42.3073689 54.2651282,42.3535506 54.2892683,42.4083912 C54.3134084,42.4632319 54.3249956,42.5228832 54.3249956,42.5844587 C54.3249956,42.6460342 54.3134084,42.7037612 54.2892683,42.7576397 C54.2651282,42.8124804 54.2332633,42.8605863 54.1907768,42.9009952 C54.1492559,42.9414041 54.1009758,42.9741161 54.0449708,42.9962448 C53.9889659,43.0212598 53.9300641,43.0328052 53.8663343,43.0328052 C53.8006734,43.0328052 53.740806,43.0212598 53.684801,42.9962448 C53.6278305,42.9741161 53.5795504,42.9414041 53.5380294,42.9009952 C53.4974741,42.8605863 53.463678,42.8124804 53.4405036,42.7576397 C53.4163635,42.7037612 53.4038107,42.6460342 53.4038107,42.5844587 C53.4038107,42.5228832 53.4163635,42.4632319 53.4405036,42.4083912 C53.463678,42.3535506 53.4974741,42.3073689 53.5380294,42.2659979 C53.5795504,42.225589 53.6278305,42.1919149 53.684801,42.1697862 C53.740806,42.1457333 53.8006734,42.1341879 53.8663343,42.1341879 L53.8663343,42.1341879 Z M11.5198309,40.5284144 C11.5198309,39.7337057 12.0422219,39.0804282 12.8967803,39.0804282 C13.7136801,39.0804282 14.2640736,39.7048422 14.2640736,40.5284144 C14.2640736,41.3510245 13.7136801,41.9764007 12.8967803,41.9764007 C12.0422219,41.9764007 11.5198309,41.3231231 11.5198309,40.5284144 L11.5198309,40.5284144 Z M15.1949145,40.5284144 L15.1949145,38.2664771 L14.207103,38.2664771 L14.207103,38.815846 C13.8942478,38.4088704 13.4191713,38.1539094 12.7731831,38.1539094 C11.5005189,38.1539094 10.5040169,39.1458521 10.5040169,40.5284144 C10.5040169,41.9100146 11.5005189,42.9029194 12.7731831,42.9029194 C13.4191713,42.9029194 13.8942478,42.6479584 14.207103,42.2400207 L14.207103,42.7893896 L15.1949145,42.7893896 L15.1949145,40.5284144 Z M48.5448982,40.5284144 C48.5448982,39.7337057 49.0682549,39.0804282 49.9218476,39.0804282 C50.7387474,39.0804282 51.2891409,39.7048422 51.2891409,40.5284144 C51.2891409,41.3510245 50.7387474,41.9764007 49.9218476,41.9764007 C49.0682549,41.9764007 48.5448982,41.3231231 48.5448982,40.5284144 L48.5448982,40.5284144 Z M52.2199819,40.5284144 L52.2199819,36.45 L51.233136,36.45 L51.233136,38.815846 C50.9193151,38.4088704 50.4442386,38.1539094 49.7982505,38.1539094 C48.5255862,38.1539094 47.5290843,39.1458521 47.5290843,40.5284144 C47.5290843,41.9100146 48.5255862,42.9029194 49.7982505,42.9029194 C50.4442386,42.9029194 50.9193151,42.6479584 51.233136,42.2400207 L51.233136,42.7893896 L52.2199819,42.7893896 L52.2199819,40.5284144 Z M27.4455151,39.0332844 C28.0808817,39.0332844 28.4893316,39.4306388 28.5936167,40.13106 L26.2394774,40.13106 C26.3437625,39.4777825 26.7425564,39.0332844 27.4455151,39.0332844 L27.4455151,39.0332844 Z M27.4638616,38.1539094 C26.1342268,38.1539094 25.2033858,39.1179507 25.2033858,40.5284144 C25.2033858,41.9667795 26.1718853,42.9029194 27.5304882,42.9029194 C28.2141348,42.9029194 28.8408109,42.7326247 29.39217,42.2698464 L28.9064719,41.5415237 C28.5269901,41.8436285 28.0432232,42.0139232 27.5874587,42.0139232 C26.9511266,42.0139232 26.371765,41.7204775 26.2288558,40.9065264 L29.6007402,40.9065264 C29.6094306,40.7843376 29.6200523,40.6602245 29.6200523,40.5284144 C29.6094306,39.1179507 28.7355602,38.1539094 27.4638616,38.1539094 L27.4638616,38.1539094 Z M39.3813293,40.5284144 C39.3813293,39.7337057 39.9037203,39.0804282 40.7582786,39.0804282 C41.5751784,39.0804282 42.1255719,39.7048422 42.1255719,40.5284144 C42.1255719,41.3510245 41.5751784,41.9764007 40.7582786,41.9764007 C39.9037203,41.9764007 39.3813293,41.3231231 39.3813293,40.5284144 L39.3813293,40.5284144 Z M43.0564129,40.5284144 L43.0564129,38.2664771 L42.0686014,38.2664771 L42.0686014,38.815846 C41.7557461,38.4088704 41.2806696,38.1539094 40.6346815,38.1539094 C39.3620172,38.1539094 38.3655153,39.1458521 38.3655153,40.5284144 C38.3655153,41.9100146 39.3620172,42.9029194 40.6346815,42.9029194 C41.2806696,42.9029194 41.7557461,42.6479584 42.0686014,42.2400207 L42.0686014,42.7893896 L43.0564129,42.7893896 L43.0564129,40.5284144 Z M33.8069053,40.5284144 C33.8069053,41.9003934 34.7657487,42.9029194 36.2286367,42.9029194 C36.9122833,42.9029194 37.3690134,42.751867 37.8624363,42.3641338 L37.3873598,41.5694251 C37.0165684,41.8330452 36.6283962,41.9764007 36.1996686,41.9764007 C35.4117368,41.9667795 34.8333409,41.3991304 34.8333409,40.5284144 C34.8333409,39.6586605 35.4117368,39.0900493 36.1996686,39.0804282 C36.6283962,39.0804282 37.0165684,39.2228215 37.3873598,39.4874037 L37.8624363,38.692695 C37.3690134,38.3039997 36.9122833,38.1539094 36.2286367,38.1539094 C34.7657487,38.1539094 33.8069053,39.1564354 33.8069053,40.5284144 L33.8069053,40.5284144 Z M46.5325824,38.1539094 C45.9628768,38.1539094 45.5920854,38.4184916 45.3352351,38.815846 L45.3352351,38.2664771 L44.3570796,38.2664771 L44.3570796,42.7893896 L45.3448911,42.7893896 L45.3448911,40.254211 C45.3448911,39.5056839 45.668368,39.0900493 46.3133906,39.0900493 C46.5132703,39.0900493 46.7218405,39.1179507 46.9313762,39.2035792 L47.2355411,38.2760983 C47.0163493,38.191432 46.7314965,38.1539094 46.5325824,38.1539094 L46.5325824,38.1539094 Z M20.0760358,38.6253468 C19.6009593,38.314583 18.9453152,38.1539094 18.2249756,38.1539094 C17.0759085,38.1539094 16.3352912,38.7023161 16.3352912,39.6018956 C16.3352912,40.3398395 16.8847191,40.7920345 17.9014987,40.9353899 L18.3669192,41.0008139 C18.9076567,41.0768212 19.164507,41.2192145 19.164507,41.4732134 C19.164507,41.8253483 18.8033716,42.0235444 18.1293809,42.0235444 C17.4457343,42.0235444 16.9513457,41.8061059 16.6191784,41.5501828 L16.1537579,42.3150659 C16.6944954,42.7124202 17.3791077,42.9029194 18.1206905,42.9029194 C19.4300477,42.9029194 20.189977,42.2881266 20.189977,41.4279939 C20.189977,40.6313609 19.5913033,40.2157264 18.6044574,40.0742951 L18.139037,40.0079091 C17.711275,39.950182 17.3694517,39.8655157 17.3694517,39.563411 C17.3694517,39.2314806 17.6929285,39.0332844 18.233666,39.0332844 C18.812062,39.0332844 19.3730771,39.2507229 19.6482739,39.4210176 L20.0760358,38.6253468 Z M32.8104033,38.1539094 C32.2406978,38.1539094 31.870872,38.4184916 31.6130561,38.815846 L31.6130561,38.2664771 L30.6358662,38.2664771 L30.6358662,42.7893896 L31.6236777,42.7893896 L31.6236777,40.254211 C31.6236777,39.5056839 31.946189,39.0900493 32.5912116,39.0900493 C32.7910913,39.0900493 33.0006271,39.1179507 33.2101628,39.2035792 L33.5133621,38.2760983 C33.2941703,38.191432 33.0093175,38.1539094 32.8104033,38.1539094 L32.8104033,38.1539094 Z M24.386486,38.2664771 L22.772964,38.2664771 L22.772964,36.8944981 L21.7764621,36.8944981 L21.7764621,38.2664771 L20.8543116,38.2664771 L20.8543116,39.1660566 L21.7764621,39.1660566 L21.7764621,41.2278735 C21.7764621,42.2785054 22.184912,42.9029194 23.3523256,42.9029194 C23.7800875,42.9029194 24.2735105,42.7701473 24.5863657,42.5527088 L24.301513,41.7108563 C24.0079698,41.8821132 23.6844929,41.9667795 23.4276426,41.9667795 C22.9342196,41.9667795 22.772964,41.6637126 22.772964,41.2095933 L22.772964,39.1660566 L24.386486,39.1660566 L24.386486,38.2664771 Z M9.63014657,42.7893896 L9.63014657,39.950182 C9.63014657,38.882232 8.94746551,38.1625684 7.8447473,38.1539094 C7.26538572,38.1433261 6.66767769,38.3242041 6.24957175,38.9582393 C5.9367165,38.4569763 5.44232795,38.1539094 4.74999087,38.1539094 C4.26429274,38.1539094 3.79018185,38.2953406 3.41939044,38.824505 L3.41939044,38.2664771 L2.43157895,38.2664771 L2.43157895,42.7893896 L3.42904647,42.7893896 L3.42904647,40.2821124 C3.42904647,39.4970249 3.86549886,39.0804282 4.5404551,39.0804282 C5.19513368,39.0804282 5.52826659,39.5056839 5.52826659,40.2724913 L5.52826659,42.7893896 L6.52573411,42.7893896 L6.52573411,40.2821124 C6.52573411,39.4970249 6.98149855,39.0804282 7.63617713,39.0804282 C8.31016777,39.0804282 8.63267905,39.5056839 8.63267905,40.2724913 L8.63267905,42.7893896 L9.63014657,42.7893896 Z" id="Fill-10" fill="#000000"></path>
                        </g>
                    </g>
                </g>
            </g>
        </g>
    </g>
</svg>